<?xml version="1.0" encoding="utf-8"?>
<!-- Generator: Adobe Illustrator 27.9.4, SVG Export Plug-In . SVG Version: 9.03 Build 54784)  -->
<svg version="1.1" baseProfile="tiny" id="Capa_1" xmlns="http://www.w3.org/2000/svg" xmlns:xlink="http://www.w3.org/1999/xlink"
	 x="0px" y="0px" viewBox="0 0 1950 1900.45" overflow="visible" xml:space="preserve">
<g>
	<path fill="#FFFFFF" d="M217.59,1878.56c-107.9,0-195.7-87.81-195.7-195.72V376.17c0-100.48,74.98-183.95,174.6-194.6
		c29.57-6.38,62.83-7.27,94.36-7.27c16.99,0,35.54,0.32,55.97,0.64c24.91,0.41,52.7,0.88,84,0.88c62.42,0,115.24,2.54,150.21,4.21
		c16.69,0.79,30.11,1.46,38.44,1.54l0.86-1.14h1112.05c107.94,0,195.74,87.82,195.74,195.74v1306.68
		c0,107.91-87.8,195.72-195.74,195.72H217.59z"/>
	<path fill="#005CB9" d="M290.85,196.19c37.6,0,83.01,1.51,139.98,1.51c94.06,0,164.88,5.77,190.31,5.77
		c6.04,0,9.53-0.34,10.17-1.14h1101.09c95.97,0,173.83,77.82,173.83,173.85v1306.67c0,96.01-77.85,173.8-173.83,173.8H217.59
		c-95.98,0-173.78-77.79-173.78-173.8V376.18c0-90.08,68.44-164.13,156.15-172.96C225.22,197.62,254.37,196.19,290.85,196.19
		 M290.85,152.39v43.8V152.39c-32.37,0-66.57,0.94-97.85,7.52C82.79,172.29,0,264.82,0,376.18v1306.67
		c0,119.98,97.63,217.61,217.59,217.61h1514.81c120,0,217.61-97.63,217.61-217.61V376.18c0-120.02-97.61-217.66-217.61-217.66H631.3
		h-21.88l-0.63,0.86c-7.26-0.3-16.32-0.72-26.7-1.22c-35.18-1.7-88.33-4.24-151.26-4.24c-31.07,0-59.01-0.46-83.65-0.86
		C326.58,152.71,307.94,152.39,290.85,152.39"/>
	<path fill="#005CB9" d="M425.71,7.53c-123.61,0-231.56,92.09-231.56,228.89c0,118.46,81.6,197.4,192.09,197.4h2.66
		c128.97,0,239.47-84.22,239.47-228.98C628.37,83.81,544.19,7.53,425.71,7.53"/>
	<path fill="#005CB9" d="M388.9,435.7h-2.66c-114.2,0-193.96-81.95-193.96-199.27c0-65.08,24.87-124.42,70.01-167.11
		C305.71,28.27,363.75,5.66,425.71,5.66c122.34,0,204.53,80.05,204.53,199.19c0,69.17-24.9,128.01-71.99,170.16
		C514.52,414.15,454.38,435.7,388.9,435.7z M425.71,9.41c-130.94,0-229.69,97.6-229.69,227.02c0,115.12,78.22,195.53,190.22,195.53
		h2.66c139.89,0,237.59-93.39,237.59-227.1C626.5,87.95,545.81,9.41,425.71,9.41z"/>
	<path fill="#005CB9" d="M1856.55,1682.85c0,68.52-55.57,124.18-124.16,124.18H217.59c-68.56,0-124.19-55.66-124.19-124.18V376.2
		c0-68.61,55.62-124.21,124.19-124.21h1514.81c68.59,0,124.16,55.6,124.16,124.21V1682.85z"/>
	<path fill="#005CB9" d="M1732.39,1810.56H217.59c-70.42,0-127.72-57.29-127.72-127.71V376.2c0-70.44,57.29-127.74,127.72-127.74
		h1514.81c70.41,0,127.69,57.3,127.69,127.74v1306.65C1860.08,1753.27,1802.8,1810.56,1732.39,1810.56z M217.59,255.52
		c-66.53,0-120.66,54.14-120.66,120.68v1306.65c0,66.53,54.13,120.65,120.66,120.65h1514.81c66.51,0,120.62-54.12,120.62-120.65
		V376.2c0-66.54-54.11-120.68-120.62-120.68H217.59z"/>
	<path fill="#FFFFFF" d="M1610.76,1478.69h246.55V471.93c-24.2-6.95-50.85-10.52-79.7-10.52c-130.25,0-254.3,61.06-343.87,189.22
		c-8.12-87.48-77.32-189.22-235.99-189.22c-128.16,0-248.2,56.99-339.76,185.19h-4.08l18.27-162.83H619.94
		c-12.21,89.54-26.45,197.37-50.9,323.48l-124.06,671.45h282.8l83.39-447.62c34.62-195.32,138.38-333.69,238.05-333.69
		c71.22,0,93.6,52.94,93.6,122.06c0,34.64-6.08,73.26-12.21,111.94l-103.77,547.31h282.83l83.39-449.65
		c38.65-201.41,136.29-331.65,233.99-331.65c67.13,0,97.68,48.84,97.68,118.04c0,38.66-6.16,81.36-14.31,120.03L1610.76,1478.69z"/>
	<path fill="#FFFFFF" d="M1860.53,1481.92h-253.66l100.36-547.04c9.33-44.26,14.26-85.54,14.26-119.45
		c0-72.97-34.42-114.81-94.45-114.81c-98.73,0-193.65,135.31-230.82,329.04l-83.88,452.27h-289.41l104.5-551.14
		c5.97-37.7,12.16-76.78,12.16-111.33c0-79.96-29.56-118.83-90.37-118.83c-100.45,0-201.43,142.31-234.88,331.02l-83.89,450.28
		H441.1l124.77-675.26C588.92,687.79,603.18,583,614.64,498.8l2.49-18.26h258.67l-18.06,160.87
		c86.93-119.89,204.42-183.24,340.01-183.24c148.42,0,225.7,90.91,238.24,183.7c85.65-118.54,206.65-183.7,341.62-183.7
		c28.86,0,55.98,3.58,80.59,10.65l2.33,0.67V1481.92z M1614.63,1475.47h239.45V474.37c-23.41-6.46-49.12-9.74-76.47-9.74
		c-135.39,0-256.57,66.71-341.23,187.84l-5.05,7.22l-0.81-8.77c-8.61-92.73-83.92-186.29-232.77-186.29
		c-134.66,0-251.24,63.57-337.13,183.84l-0.97,1.35h-9.35l18.28-162.83H622.76l-1.73,12.68c-11.47,84.28-25.75,189.17-48.82,308.19
		l-123.35,667.6h276.24l82.9-444.98c33.98-191.72,137.69-336.32,241.23-336.32c64.25,0,96.83,42.15,96.83,125.28
		c0,35.06-6.23,74.4-12.25,112.44l-103.07,543.58h276.25l82.9-447.01c37.77-196.84,135.29-334.29,237.17-334.29
		c64.12,0,100.9,44.2,100.9,121.27c0,34.35-4.97,76.09-14.38,120.7L1614.63,1475.47z"/>
	<polygon fill="#FFFFFF" points="213.21,483.77 91.28,1125.03 91.28,1478.69 316.98,1478.69 504.17,483.77 	"/>
	<path fill="#FFFFFF" d="M319.66,1481.92H88.05v-356.89l122.49-644.49h297.52l-0.72,3.82L319.66,1481.92z M94.5,1475.47h219.8
		l185.97-988.47h-284.4L94.45,1125.64L94.5,1475.47z"/>
	<path fill="#FFFFFF" d="M424.8,59.05c-95.58,0-179,71.19-179,176.95c0,91.62,63.03,152.61,148.48,152.61h2.06
		c99.68,0,185.14-65.05,185.14-176.99C581.47,118.05,516.35,59.05,424.8,59.05"/>
	<path fill="#FFFFFF" d="M396.34,395.06h-2.06c-91.23,0-154.94-65.41-154.94-159.06c0-104.56,79.73-183.4,185.46-183.4
		c97.58,0,163.14,63.91,163.14,159.03C587.93,319.62,509.14,395.06,396.34,395.06z M424.8,65.5c-98.37,0-172.55,73.29-172.55,170.49
		c0,86.05,58.4,146.15,142.03,146.15h2.06c86.06,0,178.68-53.36,178.68-170.53C575.02,124.22,514.65,65.5,424.8,65.5z"/>
	<path fill-rule="evenodd" fill="#FFFFFF" d="M948.91,1675.87l-36.38-77.46h92.75l12.06,41.42l73.7-41.42h92.05l-150.6,77.53
		c-2.18,2.87-17.69,23.87-26.65,36.06c-7.96,9.84-16.51,8.69-16.51,8.69h-73.39L948.91,1675.87z M1487.4,1679.57l6.23-44.48
		l-58.56,44.48H1487.4z M1381.35,1720.68h-82.55l180.74-122.27h84.43v122.27h-82.44l2.15-16.19h-81.05L1381.35,1720.68z
		 M1363.42,1634.04L1363.42,1634.04h-78.78c4.01-11.15-19.68-10.8-24.81-10.8c-8.55,0-27.53,0.43-33.44,8.45
		c-5.86,7.94,23.94,9.56,25.58,9.76c23.74,2.98,63.46,2.62,81.2,18.52c17.77,15.9-9.14,33.95-21.69,40.76
		c-36.65,19.32-79.41,23.27-120.28,23.27c-17.44,0-33.44-1.03-47.25-3.01c-12.75-2.23-39.84-7.21-42.61-23.61
		c-1.23-4.06,0.14-8.74,2.7-14.14h79.49c-2.27,13.25,24.96,11.76,31.8,11.76c9.34,0,28.73,0.8,35.24-8.06
		c1.99-2.7,2.08-4.72-0.45-6.05c-9.21-6.97-37.4-6.87-49.57-8.45c-13.5-1.58-51.18-5.05-58.39-19.23c-10-13.51,15.99-31.2,25.16-36
		c33.95-17.88,75.23-21.93,113.08-21.93c16.05,0,29.22,1.04,41.47,2.36C1340.93,1600.31,1375.32,1606.93,1363.42,1634.04
		 M790.87,1628.22L790.87,1628.22H764.4l-18.85,25.59h29.29c14.27,0,33.56,0.55,45.61-8.65c4.56-3.46,10.82-11.25,1.94-14.23
		C816.89,1628.91,806.22,1628.22,790.87,1628.22 M661.78,1720.68h-46.5l90.05-122.05h103.22c24.39,0,42.26,0.35,53.8,1.69
		c11.13,1.04,20.6,2.37,26.78,4.4c18.06,5.89,28.82,17.64,15.79,35.27c-4.69,6.42-11.03,12.14-18.91,17.19
		c-33.51,21.32-74.84,25.52-113.71,25.52h-47.37C708.66,1707.39,687.59,1720.05,661.78,1720.68 M556.74,1720.68H386.01l90.28-122.27
		h205.47l-21.06,28.57H535.14l-12.64,17.2l105.98-0.02l-20.57,27.97h-106l-14.1,19.21h126.36
		C598.73,1710.08,577.4,1720.68,556.74,1720.68"/>
</g>
</svg>
